OpenSim_Sub10_EMGStiffKnee_GRF.mot
version=1
nRows=47
nColumns=19
inDegrees=no
endheader
time	lFx	lFy	lFz	lCOPx	lCOPy	lCOPz	rFx	rFy	rFz	rCOPx	rCOPy	rCOPz	lMx	lMy	lMz	rMx	rMy	rMz
0	4.56648757	368.72319161	24.21276662	0.83588533	0	-0.63606692	-1.57612043	298.70634695	-17.33047506	0.86021133	0	-0.38815608	0	2.44043880	0	0	0.15436327	0
0.01000000	5.25614365	367.98958815	23.77451160	0.83423943	0	-0.63554832	-1.69150383	298.66116550	-17.40264790	0.86049671	0	-0.38813265	0	2.87276517	0	0	0.25342825	0
0.02000000	5.61179683	367.56333439	23.54997576	0.83326228	0	-0.63525561	-1.70044497	298.49118959	-17.46370528	0.86056754	0	-0.38815200	0	3.11122871	0	0	0.29560999	-0.00000000
0.03000000	5.72276841	367.36027527	23.47784802	0.83291365	0	-0.63517209	-1.64331845	298.34003865	-17.49590702	0.86061363	0	-0.38817581	0	3.20088021	0	0	0.29000898	0.00000000
0.04000000	5.72265310	367.22444521	23.44779803	0.83295558	0	-0.63521441	-1.56271449	298.25442587	-17.50140257	0.86061526	0	-0.38818889	0	3.21609303	0	0	0.26863914	0.00000000
0.05000000	5.67378257	367.06339451	23.43168657	0.83319700	0	-0.63529114	-1.47558803	298.16395410	-17.51614119	0.86044808	0	-0.38821052	0	3.18861424	0	0	0.24339083	0
0.06000000	5.60623947	366.85820083	23.42699447	0.83353542	0	-0.63532362	-1.39862441	298.10488728	-17.55638579	0.86001148	0	-0.38822344	0	3.15135228	0	0	0.22621610	0
0.07000000	5.52046773	366.63823677	23.41617679	0.83386385	0	-0.63530910	-1.32773825	298.10560901	-17.62522718	0.85949423	0	-0.38823877	0	3.13067681	0	0	0.22182201	0
0.08000000	5.40739629	366.40400147	23.39526913	0.83414413	0	-0.63527411	-1.26349671	298.20100954	-17.68982227	0.85919811	0	-0.38827317	0	3.13387623	0	0	0.22549384	0
0.09000000	5.28298331	366.17282840	23.34799264	0.83432321	0	-0.63526602	-1.21231369	298.34908221	-17.70930107	0.85915644	0	-0.38830525	0	3.15280525	0	0	0.23357728	0
0.10000000	5.17919671	365.94213602	23.25991345	0.83444485	0	-0.63532213	-1.15763364	298.45510295	-17.69011792	0.85928237	0	-0.38829966	0	3.17396071	0	0	0.24390878	0
0.11000000	5.09311975	365.70305676	23.17583171	0.83457028	0	-0.63544275	-1.10207651	298.44638300	-17.66863022	0.85937797	0	-0.38827711	0	3.18766636	0	0	0.24749996	0
0.12000000	5.02880501	365.45931487	23.12371831	0.83482685	0	-0.63555876	-1.04987782	298.36178900	-17.64914555	0.85932691	0	-0.38826850	0	3.18986247	0	0	0.23413307	0
0.13000000	4.95675622	365.21388931	23.10084664	0.83528226	0	-0.63561708	-0.98708856	298.29311009	-17.64784409	0.85910444	0	-0.38828912	0	3.18403811	0	0	0.22240537	0
0.14000000	4.85090886	365.00395399	23.13241305	0.83586064	0	-0.63562346	-0.91526862	298.31943329	-17.68592826	0.85880572	0	-0.38832527	0	3.17645765	0	0	0.22566959	0
0.15000000	4.74704003	364.79212798	23.19469802	0.83638509	0	-0.63560096	-0.86082987	298.49997562	-17.74130606	0.85862779	0	-0.38836150	0	3.16347024	0	0	0.23891652	0
0.16000000	4.66934556	364.57450427	23.22754204	0.83671717	0	-0.63560623	-0.83305337	298.85423220	-17.78055133	0.85848265	0	-0.38835765	0	3.15072062	0	0	0.25250998	0.00000000
0.17000000	4.61978625	364.41125098	23.20905105	0.83688090	0	-0.63567232	-0.82463991	299.39369144	-17.81995995	0.85843006	0	-0.38831355	0	3.13654836	0	0	0.25967604	0
0.18000000	4.60546882	364.31223875	23.15634393	0.83706107	0	-0.63578505	-0.83433403	300.00085837	-17.85317068	0.85845714	0	-0.38826207	0	3.11514429	0	0	0.26081041	0
0.19000000	4.60489829	364.24561605	23.08192443	0.83732077	0	-0.63587698	-0.85376385	300.56901675	-17.87713146	0.85863765	0	-0.38821065	0	3.09337539	0	0	0.25637700	0
0.20000000	4.59242554	364.16083728	22.98647874	0.83764607	0	-0.63594155	-0.88924714	301.04696015	-17.87861838	0.85896711	0	-0.38815153	0	3.07476898	0	0	0.25973285	0
0.21000000	4.55436001	364.03088961	22.90031874	0.83797842	0	-0.63597917	-0.92991756	301.39289639	-17.84767246	0.85926006	0	-0.38808008	0	3.05985230	0	0	0.28652399	0
0.22000000	4.49323171	363.80368911	22.83675965	0.83830478	0	-0.63599802	-0.96491763	301.58024668	-17.80980109	0.85939979	0	-0.38801925	0	3.05487121	0	0	0.31715898	0
0.23000000	4.40206333	363.40496547	22.77043727	0.83873404	0	-0.63603732	-0.99776307	301.74672020	-17.80692794	0.85946931	0	-0.38799560	0	3.06181240	0	0	0.32217539	-0.00000000
0.24000000	4.30458084	362.80380196	22.71457473	0.83922158	0	-0.63607653	-1.02462938	301.98969520	-17.83487078	0.85959714	0	-0.38801696	0	3.07925382	0	0	0.30240845	0
0.25000000	4.22323390	362.05889180	22.66077537	0.83964058	0	-0.63611337	-1.03577322	302.27717290	-17.86700604	0.85978701	0	-0.38804574	0	3.09145361	0	0	0.27869849	-0.00000000
0.26000000	4.15958651	361.22314573	22.57830582	0.83985818	0	-0.63618145	-1.03877445	302.53618647	-17.89769279	0.86002535	0	-0.38802937	0	3.09678208	0	0	0.26797704	0.00000000
0.27000000	4.11106113	360.31425433	22.47564689	0.83990829	0	-0.63625922	-1.03508191	302.75463680	-17.91654492	0.86029952	0	-0.38795411	0	3.09977255	0	0	0.27347544	0
0.28000000	4.07360377	359.31433332	22.35820896	0.84005312	0	-0.63628403	-1.02632234	303.01088168	-17.93434945	0.86049080	0	-0.38785703	0	3.09732531	0	0	0.28418957	0.00000000
0.29000000	4.04984756	358.31112868	22.23321139	0.84039531	0	-0.63624908	-1.01618391	303.32597078	-17.97825351	0.86053792	0	-0.38781086	0	3.08499010	0	0	0.29303221	-0.00000000
0.30000000	4.04170932	357.37835776	22.11397411	0.84065315	0	-0.63616599	-1.02476589	303.68480776	-18.02816193	0.86060856	0	-0.38782825	0	3.07100001	0	0	0.30375687	0
0.31000000	4.05832417	356.54083215	21.98174041	0.84067384	0	-0.63608762	-1.06420289	304.00869804	-18.08168525	0.86073341	0	-0.38788681	0	3.06401898	0	0	0.32752937	0
0.32000000	4.07383621	355.88647026	21.83061248	0.84056559	0	-0.63608693	-1.12856805	304.17672605	-18.14681486	0.86075909	0	-0.38795566	0	3.05853376	0	0	0.35620218	0
0.33000000	4.05148757	355.46496790	21.69368991	0.84042725	0	-0.63615115	-1.21144349	304.30893018	-18.20424258	0.86064629	0	-0.38794549	0	3.05940590	0	0	0.37685756	-0.00000000
0.34000000	3.99912200	355.15552306	21.58961828	0.84037724	0	-0.63620308	-1.29016483	304.49171467	-18.27017471	0.86065096	0	-0.38787347	0	3.06213860	0	0	0.39457267	0
0.35000000	3.93881136	354.95843620	21.54916666	0.84036365	0	-0.63620571	-1.34096211	304.64446607	-18.35980469	0.86093419	0	-0.38780828	0	3.05020713	0	0	0.41549748	0
0.36000000	3.89678533	354.93339585	21.57066238	0.84029975	0	-0.63620645	-1.37548847	304.77234079	-18.45416672	0.86139378	0	-0.38775584	0	3.02394347	0	0	0.41867312	0
0.37000000	3.87593106	355.02971681	21.60916076	0.84027555	0	-0.63621854	-1.40713500	304.90730945	-18.54186490	0.86185365	0	-0.38770217	0	2.99716265	0	0	0.39873173	0
0.38000000	3.87125118	355.18263042	21.63898088	0.84032810	0	-0.63624503	-1.44287131	305.17416636	-18.63337923	0.86216120	0	-0.38763257	0	2.98195069	0	0	0.37476860	0
0.39000000	3.89264312	355.33647946	21.66255216	0.84039830	0	-0.63625012	-1.47166884	305.65425298	-18.73858147	0.86232621	0	-0.38757382	0	2.96503761	0	0	0.35900630	0
0.40000000	3.92697369	355.53095208	21.68877190	0.84038767	0	-0.63623442	-1.49392799	306.40029554	-18.84022234	0.86241225	0	-0.38750229	0	2.95906063	0	0	0.35647027	0
0.41000000	3.97208332	355.80573114	21.71970322	0.84033804	0	-0.63621279	-1.53112360	307.46518997	-18.93572873	0.86231813	0	-0.38738548	0	2.96301278	0	0	0.36614861	0
0.42000000	4.01428867	356.18148357	21.75189716	0.84026359	0	-0.63619029	-1.60223924	308.77548302	-19.03120886	0.86217575	0	-0.38729945	0	2.97745719	0	0	0.37999680	0
0.43000000	4.04654140	356.62740158	21.75954007	0.84010339	0	-0.63615503	-1.68882282	310.12938739	-19.14488624	0.86214223	0	-0.38726548	0	3.01246463	0	0	0.39139740	0
0.44000000	4.05701898	357.12062420	21.75768275	0.83986826	0	-0.63611081	-1.75502868	311.31673944	-19.28382341	0.86223415	0	-0.38725951	0	3.04802722	0	0	0.41175095	0
0.45000000	4.06448886	357.69557459	21.78881615	0.83960962	0	-0.63604597	-1.79264294	312.14662704	-19.41292900	0.86230957	0	-0.38726052	0	3.06178600	0	0	0.43586094	0
0.46000000	4.05906949	358.28256183	21.84042720	0.83942875	0	-0.63597796	-1.80893663	312.52374624	-19.49963885	0.86241793	0	-0.38726188	0	3.06222042	0	0	0.44484080	0
